<?xml version="1.0" encoding="utf-8"?>
<!-- Generator: Adobe Illustrator 19.1.0, SVG Export Plug-In . SVG Version: 6.00 Build 0)  -->
<svg version="1.1" id="Слой_1" xmlns="http://www.w3.org/2000/svg" xmlns:xlink="http://www.w3.org/1999/xlink" x="0px" y="0px"
	 viewBox="0 0 60 60" style="enable-background:new 0 0 60 60;" xml:space="preserve">
<style type="text/css">
	.st0{fill:#E2E2E2;}
	.st1{fill:#FFFFFF;}
</style>
<circle class="st0" cx="30" cy="30" r="30"/>
<path class="st1" d="M31.6,42.3h-0.5c-0.8,0-1.5-0.7-1.5-1.5V19.2c0-0.8,0.7-1.5,1.5-1.5h0.5c0.8,0,1.5,0.7,1.5,1.5v21.6
	C33.1,41.6,32.5,42.3,31.6,42.3z"/>
<path class="st1" d="M43.7,29.8v0.5c0,0.8-0.7,1.5-1.5,1.5H20.6c-0.8,0-1.5-0.7-1.5-1.5v-0.5c0-0.8,0.7-1.5,1.5-1.5h21.6
	C43,28.3,43.7,28.9,43.7,29.8z"/>
</svg>
